<?xml version="1.0" encoding="UTF-8"?>
<!DOCTYPE svg PUBLIC "-//W3C//DTD SVG 1.1//EN" "http://www.w3.org/Graphics/SVG/1.1/DTD/svg11.dtd">
<svg xmlns="http://www.w3.org/2000/svg" version="1.1" width="800px" height="800px" style="shape-rendering:geometricPrecision; text-rendering:geometricPrecision; image-rendering:optimizeQuality; fill-rule:evenodd; clip-rule:evenodd" xmlns:xlink="http://www.w3.org/1999/xlink">
<g><path style="opacity:0.965" fill="#999999" d="M 235.5,353.5 C 239.626,346.241 242.959,338.575 245.5,330.5C 257.537,304.745 269.204,278.745 280.5,252.5C 282.391,249.386 283.724,246.052 284.5,242.5C 301.198,206.77 317.532,170.77 333.5,134.5C 333.167,134.167 332.833,133.833 332.5,133.5C 252.007,169.384 171.673,205.55 91.5,242C 75.3738,256.347 72.2071,273.18 82,292.5C 134.473,410.25 187.139,527.917 240,645.5C 249.723,659.108 262.89,664.608 279.5,662C 286.333,659 293.333,656.5 300.5,654.5C 309.698,655.895 313.865,661.228 313,670.5C 312.394,673.548 310.894,676.048 308.5,678C 278.879,694.394 251.379,691.561 226,669.5C 222.176,665.186 218.843,660.519 216,655.5C 163.274,537.048 110.274,418.715 57,300.5C 44.6197,270.194 50.453,244.028 74.5,222C 80.1777,218.159 86.1777,214.826 92.5,212C 178.649,173.758 264.649,135.258 350.5,96.5C 367.028,54.9032 396.695,40.7365 439.5,54C 533.584,96.1394 627.584,138.473 721.5,181C 748.724,202.722 755.89,229.888 743,262.5C 728.667,294.167 714.333,325.833 700,357.5C 694.755,363.682 688.589,364.849 681.5,361C 676.912,356.811 675.412,351.645 677,345.5C 692.888,311.058 708.222,276.392 723,241.5C 725.383,220.563 716.883,206.063 697.5,198C 605.059,156.445 512.392,115.445 419.5,75C 401.138,73.0968 387.638,80.2635 379,96.5C 326.625,214.254 273.958,331.921 221,449.5C 213.381,471.209 219.548,487.709 239.5,499C 265.951,510.392 292.284,522.059 318.5,534C 324.589,538.946 326.089,545.113 323,552.5C 319.376,557.486 314.543,559.319 308.5,558C 279.382,545.274 250.382,532.274 221.5,519C 196.622,501.71 187.456,478.21 194,448.5C 207.298,416.573 221.131,384.907 235.5,353.5 Z"/></g>
<g><path style="opacity:0.924" fill="#656565" d="M 394.5,132.5 C 407.888,132.939 412.722,139.606 409,152.5C 403.482,158.921 396.982,160.087 389.5,156C 383.908,150.521 383.075,144.355 387,137.5C 389.17,135.177 391.67,133.51 394.5,132.5 Z"/></g>
<g><path style="opacity:0.929" fill="#646464" d="M 429.5,147.5 C 442.162,149.662 445.995,156.662 441,168.5C 435.221,174.164 428.721,174.997 421.5,171C 414.147,159.568 416.814,151.735 429.5,147.5 Z"/></g>
<g><path style="opacity:0.927" fill="#656565" d="M 459.5,162.5 C 474.232,162.626 479.066,169.626 474,183.5C 469.002,188.607 463.168,189.773 456.5,187C 450.885,182.869 449.052,177.369 451,170.5C 453.074,166.923 455.907,164.256 459.5,162.5 Z"/></g>
<g><path style="opacity:0.935" fill="#656565" d="M 381.5,166.5 C 393.725,168.951 397.558,175.951 393,187.5C 387.221,193.164 380.721,193.997 373.5,190C 367.938,182.725 368.271,175.725 374.5,169C 376.927,168.098 379.26,167.264 381.5,166.5 Z"/></g>
<g><path style="opacity:0.934" fill="#656565" d="M 491.5,177.5 C 504.818,176.319 510.318,182.319 508,195.5C 503.913,202.417 498.08,204.584 490.5,202C 483.93,198.345 481.763,192.845 484,185.5C 485.353,181.65 487.853,178.983 491.5,177.5 Z"/></g>
<g><path style="opacity:0.934" fill="#656565" d="M 527.5,191.5 C 540.992,193.477 544.826,200.81 539,213.5C 531.653,219.13 524.653,218.796 518,212.5C 513.195,201.715 516.362,194.715 527.5,191.5 Z"/></g>
<g><path style="opacity:0.937" fill="#656565" d="M 362.5,201.5 C 375.819,200.319 381.319,206.319 379,219.5C 374.174,227.134 367.674,228.967 359.5,225C 354.321,220.447 352.821,214.947 355,208.5C 356.742,205.254 359.242,202.921 362.5,201.5 Z"/></g>
<g><path style="opacity:0.933" fill="#656565" d="M 557.5,206.5 C 571.351,205.52 576.851,211.853 574,225.5C 568.58,232.926 561.746,234.426 553.5,230C 545.905,220.582 547.238,212.749 557.5,206.5 Z"/></g>
<g><path style="opacity:0.928" fill="#656565" d="M 397.5,215.5 C 410.907,216.978 415.073,223.978 410,236.5C 405.084,241.72 399.25,242.887 392.5,240C 385.413,233.578 384.746,226.578 390.5,219C 392.713,217.384 395.047,216.217 397.5,215.5 Z"/></g>
<g><path style="opacity:0.928" fill="#656565" d="M 591.5,220.5 C 605.586,221.339 610.086,228.339 605,241.5C 599.49,247.043 593.323,247.876 586.5,244C 580.908,238.521 580.075,232.355 584,225.5C 586.17,223.177 588.67,221.51 591.5,220.5 Z"/></g>
<g><path style="opacity:0.936" fill="#666666" d="M 284.5,242.5 C 283.724,246.052 282.391,249.386 280.5,252.5C 277.688,253.87 274.688,254.87 271.5,255.5C 260.303,253.125 256.47,246.458 260,235.5C 267.667,227.5 275.333,227.5 283,235.5C 283.977,237.74 284.477,240.073 284.5,242.5 Z"/></g>
<g><path style="opacity:0.936" fill="#656565" d="M 428.5,230.5 C 443.342,229.83 448.508,236.497 444,250.5C 437.345,257.964 430.345,258.297 423,251.5C 418.321,242.642 420.154,235.642 428.5,230.5 Z"/></g>
<g><path style="opacity:0.925" fill="#666666" d="M 623.5,235.5 C 636.976,235.138 642.143,241.471 639,254.5C 631.776,263.337 624.109,263.671 616,255.5C 612.532,246.387 615.032,239.72 623.5,235.5 Z"/></g>
<g><path style="opacity:0.931" fill="#656565" d="M 233.5,244.5 C 246.932,243.427 252.432,249.427 250,262.5C 245.983,269.138 240.15,271.304 232.5,269C 225.074,263.58 223.574,256.746 228,248.5C 229.812,247.023 231.645,245.69 233.5,244.5 Z"/></g>
<g><path style="opacity:0.936" fill="#656565" d="M 460.5,245.5 C 472.615,244.119 478.449,249.452 478,261.5C 476.26,267.391 472.26,270.724 466,271.5C 454.341,269.523 450.341,262.857 454,251.5C 455.914,249.144 458.081,247.144 460.5,245.5 Z"/></g>
<g><path style="opacity:0.93" fill="#656565" d="M 342.5,246.5 C 355.481,245.647 360.981,251.647 359,264.5C 353.553,272.815 346.387,274.648 337.5,270C 331.093,260.306 332.759,252.472 342.5,246.5 Z"/></g>
<g><path style="opacity:0.946" fill="#656565" d="M 659.5,249.5 C 671.027,251.552 675.193,258.218 672,269.5C 670.833,272 669,273.833 666.5,275C 650.773,277.276 644.939,270.776 649,255.5C 651.793,252.027 655.293,250.027 659.5,249.5 Z"/></g>
<g><path style="opacity:0.935" fill="#656565" d="M 202.5,258.5 C 213.669,258.168 218.836,263.501 218,274.5C 213.669,284.705 206.503,287.205 196.5,282C 192.284,276.69 191.451,270.857 194,264.5C 196.322,261.605 199.155,259.605 202.5,258.5 Z"/></g>
<g><path style="opacity:0.935" fill="#656565" d="M 494.5,260.5 C 507.976,260.138 513.143,266.471 510,279.5C 502.81,288.413 495.143,288.746 487,280.5C 483.136,271.255 485.636,264.588 494.5,260.5 Z"/></g>
<g><path style="opacity:0.923" fill="#656565" d="M 375.5,261.5 C 390.248,261.664 395.082,268.664 390,282.5C 384.448,287.912 378.281,288.746 371.5,285C 363.905,275.582 365.238,267.749 375.5,261.5 Z"/></g>
<g><path style="opacity:0.937" fill="#656565" d="M 168.5,273.5 C 181.69,273.189 187.19,279.522 185,292.5C 180.948,298.926 175.115,301.426 167.5,300C 157.165,295.769 154.665,288.602 160,278.5C 162.682,276.415 165.516,274.748 168.5,273.5 Z"/></g>
<g><path style="opacity:0.938" fill="#656565" d="M 525.5,275.5 C 539.936,273.103 545.769,279.103 543,293.5C 536.089,303.028 528.423,303.695 520,295.5C 516.593,287.2 518.426,280.533 525.5,275.5 Z"/></g>
<g><path style="opacity:0.938" fill="#656565" d="M 406.5,276.5 C 417.226,274.187 423.559,278.353 425.5,289C 423.424,299.867 417.091,303.867 406.5,301C 400.333,297.155 398.166,291.655 400,284.5C 401.305,281.039 403.471,278.372 406.5,276.5 Z"/></g>
<g><path style="opacity:0.938" fill="#656565" d="M 326.5,281.5 C 339.791,279.625 345.624,285.292 344,298.5C 340.527,306.095 334.694,308.595 326.5,306C 315.939,297.844 315.939,289.678 326.5,281.5 Z"/></g>
<g><path style="opacity:0.935" fill="#646464" d="M 640.5,284.5 C 652.091,283.591 657.591,288.924 657,300.5C 653.455,308.854 647.289,311.687 638.5,309C 628.761,299.891 629.428,291.724 640.5,284.5 Z"/></g>
<g><path style="opacity:0.93" fill="#656565" d="M 135.5,288.5 C 148.937,287.432 154.437,293.432 152,306.5C 147.887,313.319 142.054,315.486 134.5,313C 127.074,307.58 125.574,300.746 130,292.5C 131.812,291.023 133.645,289.69 135.5,288.5 Z"/></g>
<g><path style="opacity:0.935" fill="#656565" d="M 560.5,289.5 C 573.334,288.837 578.501,294.837 576,307.5C 572.628,314.433 567.128,316.933 559.5,315C 550.724,310.338 548.558,303.504 553,294.5C 555.17,292.177 557.67,290.51 560.5,289.5 Z"/></g>
<g><path style="opacity:0.937" fill="#656565" d="M 442.5,290.5 C 456.758,292.012 460.925,299.345 455,312.5C 449.209,317.18 443.042,317.68 436.5,314C 432.284,308.69 431.451,302.857 434,296.5C 436.322,293.605 439.155,291.605 442.5,290.5 Z"/></g>
<g><path style="opacity:0.927" fill="#666666" d="M 592.5,304.5 C 605.012,302.847 610.512,308.514 609,321.5C 604.338,330.276 597.504,332.442 588.5,328C 581.038,318.603 582.371,310.77 592.5,304.5 Z"/></g>
<g><path style="opacity:0.931" fill="#656565" d="M 473.5,305.5 C 486.164,304.995 491.664,310.995 490,323.5C 484.935,331.751 478.101,333.585 469.5,329C 462.038,319.603 463.371,311.77 473.5,305.5 Z"/></g>
<g><path style="opacity:0.927" fill="#656565" d="M 312.5,315.5 C 327.439,315.598 332.272,322.598 327,336.5C 318.936,343.418 311.603,342.751 305,334.5C 302.136,325.909 304.636,319.575 312.5,315.5 Z"/></g>
<g><path style="opacity:0.922" fill="#656565" d="M 625.5,318.5 C 638.636,318.139 644.136,324.472 642,337.5C 637.36,344.155 631.194,345.989 623.5,343C 616.132,337.932 614.632,331.432 619,323.5C 620.965,321.45 623.132,319.783 625.5,318.5 Z"/></g>
<g><path style="opacity:0.935" fill="#656565" d="M 505.5,320.5 C 518.822,318.657 524.656,324.324 523,337.5C 519.405,345.192 513.572,347.692 505.5,345C 494.86,336.929 494.86,328.763 505.5,320.5 Z"/></g>
<g><path style="opacity:0.932" fill="#656565" d="M 151.5,322.5 C 164.97,322.132 170.136,328.465 167,341.5C 161.904,348.714 155.404,350.214 147.5,346C 139.878,336.507 141.211,328.674 151.5,322.5 Z"/></g>
<g><path style="opacity:0.949" fill="#666666" d="M 245.5,330.5 C 242.959,338.575 239.626,346.241 235.5,353.5C 225.893,351.302 222.06,345.302 224,335.5C 227.693,328.241 233.526,325.741 241.5,328C 242.984,328.662 244.317,329.496 245.5,330.5 Z"/></g>
<g><path style="opacity:0.926" fill="#666666" d="M 539.5,335.5 C 554.27,335.717 559.104,342.717 554,356.5C 547,363.167 540,363.167 533,356.5C 528.271,347.192 530.438,340.192 539.5,335.5 Z"/></g>
<g><path style="opacity:0.921" fill="#656565" d="M 200.5,341.5 C 213.888,341.939 218.722,348.606 215,361.5C 209.482,367.921 202.982,369.087 195.5,365C 188.833,358 188.833,351 195.5,344C 197.315,343.243 198.981,342.41 200.5,341.5 Z"/></g>
<g><path style="opacity:0.934" fill="#646464" d="M 297.5,348.5 C 312.376,349.231 316.876,356.565 311,370.5C 306.063,374.722 300.563,375.556 294.5,373C 287.723,366.933 286.723,359.933 291.5,352C 293.432,350.541 295.432,349.375 297.5,348.5 Z"/></g>
<g><path style="opacity:0.923" fill="#656565" d="M 167.5,356.5 C 181.048,356.878 185.881,363.545 182,376.5C 176.472,382.957 169.972,384.124 162.5,380C 154.616,369.973 156.283,362.14 167.5,356.5 Z"/></g>
<g><path style="opacity:0.986" fill="#f57b00" d="M 355.5,386.5 C 476.5,386.333 597.5,386.5 718.5,387C 742.227,393.425 752.394,408.925 749,433.5C 745.564,446.6 737.564,455.6 725,460.5C 724.5,515.166 724.333,569.832 724.5,624.5C 730.509,624.334 736.509,624.501 742.5,625C 749.138,629.017 751.304,634.85 749,642.5C 747.5,645.333 745.333,647.5 742.5,649C 678.168,649.5 613.834,649.667 549.5,649.5C 549.5,658.5 549.5,667.5 549.5,676.5C 569.313,684.444 577.48,699.111 574,720.5C 565.977,744.6 549.477,753.767 524.5,748C 504.747,739.669 496.581,724.836 500,703.5C 503.487,690.183 511.654,681.183 524.5,676.5C 524.5,667.5 524.5,658.5 524.5,649.5C 460.166,649.667 395.832,649.5 331.5,649C 328.667,647.5 326.5,645.333 325,642.5C 322.696,634.85 324.862,629.017 331.5,625C 337.491,624.501 343.491,624.334 349.5,624.5C 349.667,569.832 349.5,515.166 349,460.5C 329.752,451.679 321.752,436.679 325,415.5C 329.557,399.773 339.724,390.106 355.5,386.5 Z M 359.5,412.5 C 477.834,412.333 596.167,412.5 714.5,413C 723.746,416.96 725.912,423.46 721,432.5C 719.065,434.102 716.899,435.269 714.5,436C 596.167,436.667 477.833,436.667 359.5,436C 350.254,432.04 348.088,425.54 353,416.5C 355.013,414.752 357.18,413.418 359.5,412.5 Z M 374.5,462.5 C 482.833,462.5 591.167,462.5 699.5,462.5C 699.5,516.5 699.5,570.5 699.5,624.5C 591.167,624.5 482.833,624.5 374.5,624.5C 374.5,570.5 374.5,516.5 374.5,462.5 Z M 532.5,700.5 C 544.319,699.485 549.486,704.818 548,716.5C 544.677,722.908 539.511,725.075 532.5,723C 526.092,719.677 523.925,714.511 526,707.5C 527.694,704.642 529.861,702.309 532.5,700.5 Z"/></g>
<g><path style="opacity:0.937" fill="#656565" d="M 186.5,402.5 C 201.342,401.83 206.508,408.497 202,422.5C 195.395,430.12 188.395,430.453 181,423.5C 176.321,414.596 178.154,407.596 186.5,402.5 Z"/></g>
</svg>
